<?xml version="1.0" encoding="UTF-8"?>
<svg width="24px" height="24px" viewBox="0 0 24 24" version="1.1" xmlns="http://www.w3.org/2000/svg">
    <g stroke="none" stroke-width="1" fill="none" fill-rule="evenodd">
        <path d="M12,2 C17.5228475,2 22,6.4771525 22,12 C22,17.5228475 17.5228475,22 12,22 C6.4771525,22 2,17.5228475 2,12 C2,6.4771525 6.4771525,2 12,2 Z M12,4 C7.581722,4 4,7.581722 4,12 C4,16.418278 7.581722,20 12,20 C16.418278,20 20,16.418278 20,12 C20,7.581722 16.418278,4 12,4 Z" fill="#8A2BE2"/>
        <circle fill="#8A2BE2" cx="12" cy="12" r="2"/>
        <path d="M15,9 C16.1045695,9 17,8.1045695 17,7 C17,5.8954305 16.1045695,5 15,5 C13.8954305,5 13,5.8954305 13,7 C13,8.1045695 13.8954305,9 15,9 Z" fill="#8A2BE2"/>
        <path d="M9,9 C10.1045695,9 11,8.1045695 11,7 C11,5.8954305 10.1045695,5 9,5 C7.8954305,5 7,5.8954305 7,7 C7,8.1045695 7.8954305,9 9,9 Z" fill="#8A2BE2"/>
    </g>
</svg> 